<?xml version="1.0" encoding="iso-8859-1"?>
<!-- Generator: Adobe Illustrator 19.0.0, SVG Export Plug-In . SVG Version: 6.00 Build 0)  -->
<svg version="1.1" id="Layer_1" xmlns="http://www.w3.org/2000/svg" xmlns:xlink="http://www.w3.org/1999/xlink" x="0px" y="0px"
	 viewBox="0 0 398.469 398.469" style="enable-background:new 0 0 398.469 398.469;" xml:space="preserve">
<g>
	<g>
		<path style="fill:#C3C6C8;" d="M307.151,115.054c0-11.791-9.646-21.438-21.437-21.438H28.938c-11.79,0-21.438,9.646-21.438,21.438
			v160.499c0,11.791,9.648,21.438,21.438,21.438h256.776c11.791,0,21.437-9.646,21.437-21.438V115.054z"/>
		<path style="fill:#E8E8E8;" d="M157.326,173.619L7.5,269.464v6.089c0,11.791,9.648,21.438,21.438,21.438h256.776
			c11.791,0,21.437-9.646,21.437-21.438v-6.089L157.326,173.619z"/>
		<path style="fill:#E8E8E8;" d="M157.326,216.989l149.826-95.849v-6.087c0-11.791-9.646-21.438-21.437-21.438H28.938
			c-11.79,0-21.438,9.646-21.438,21.438v6.087L157.326,216.989z"/>
		<path style="fill:#005CB9;" d="M306,108.158l-148.675,95.108L8.651,108.158c-0.742,2.168-1.151,4.486-1.151,6.896v6.087
			l149.825,95.849l149.826-95.849v-6.087C307.151,112.645,306.743,110.326,306,108.158z"/>
	</g>
	<path style="fill:#005CB9;" d="M386.379,224.176l-54.903-54.903c-6.121-6.12-11.129-4.046-11.129,4.61v24.174h-81.276
		c-8.656,0-15.739,7.082-15.739,15.738v43.02c0,8.656,7.083,15.739,15.739,15.739h81.276v24.173c0,8.657,5.008,10.73,11.129,4.61
		l54.903-54.903C392.5,240.313,392.5,230.296,386.379,224.176z"/>
	<path style="fill:#071C2C;" d="M391.683,218.872l-54.903-54.903c-3.792-3.791-7.729-5.714-11.702-5.714
		c-5.139,0-8.542,2.911-10.426,6.937v-50.139c0-15.956-12.981-28.938-28.938-28.938H28.938C12.981,86.115,0,99.097,0,115.053v6.088
		c0,0.003,0,0.005,0,0.008v154.404c0,15.956,12.981,28.938,28.938,28.938h256.775c12.422,0,23.039-7.869,27.134-18.883v11.119
		c0,7.778,3.782,15.627,12.23,15.628l0,0c3.973,0,7.91-1.923,11.702-5.714l54.903-54.903c4.377-4.377,6.787-10.213,6.787-16.433
		S396.06,223.249,391.683,218.872z M15,115.053c0-7.686,6.252-13.938,13.938-13.938h256.775c7.686,0,13.938,6.252,13.938,13.938
		v1.982l-142.326,91.049L15,117.035V115.053z M299.651,134.841v55.716h-60.58c-9.174,0-17.122,5.345-20.897,13.083l-13.033-8.338
		L299.651,134.841z M15,134.842l94.511,60.461L15,255.764V134.842z M285.713,289.49H28.938c-7.686,0-13.938-6.252-13.938-13.938
		v-1.983l108.428-69.364l29.855,19.1c1.232,0.788,2.637,1.183,4.042,1.183s2.81-0.395,4.042-1.183l29.855-19.099l24.61,15.742
		v36.866c0,12.814,10.425,23.239,23.239,23.239h59.82C297.014,285.534,291.822,289.49,285.713,289.49z M381.076,241.13
		l-53.229,53.229v-21.806c0-4.143-3.358-7.5-7.5-7.5h-81.276c-4.543,0-8.239-3.696-8.239-8.239v-43.02
		c0-4.543,3.696-8.238,8.239-8.238h81.276c4.142,0,7.5-3.357,7.5-7.5V176.25l53.229,53.229c1.543,1.543,2.394,3.612,2.394,5.825
		S382.62,239.587,381.076,241.13z"/>
</g>
<g>
</g>
<g>
</g>
<g>
</g>
<g>
</g>
<g>
</g>
<g>
</g>
<g>
</g>
<g>
</g>
<g>
</g>
<g>
</g>
<g>
</g>
<g>
</g>
<g>
</g>
<g>
</g>
<g>
</g>
</svg>
